<mxfile host="65bd71144e">
    <diagram id="H2SV2Q8QELmRuANKJSNj" name="Page-1">
        <mxGraphModel dx="907" dy="489" grid="0" gridSize="10" guides="1" tooltips="1" connect="1" arrows="1" fold="1" page="1" pageScale="1" pageWidth="850" pageHeight="1100" math="0" shadow="0">
            <root>
                <mxCell id="0"/>
                <mxCell id="1" parent="0"/>
                <mxCell id="2" value="A" style="swimlane;fontStyle=1;startSize=23;fontSize=14;" parent="1" vertex="1">
                    <mxGeometry x="120" y="40" width="50" height="50" as="geometry"/>
                </mxCell>
                <mxCell id="3" value="B" style="swimlane;fontStyle=1;fontSize=14;" parent="1" vertex="1">
                    <mxGeometry x="400" y="40" width="50" height="50" as="geometry"/>
                </mxCell>
                <mxCell id="4" value="" style="line;strokeWidth=2;html=1;fontSize=14;" parent="1" vertex="1">
                    <mxGeometry x="170" y="70" width="230" height="10" as="geometry"/>
                </mxCell>
                <mxCell id="5" value="A" style="swimlane;fontStyle=1;startSize=23;fontSize=14;" parent="1" vertex="1">
                    <mxGeometry x="120" y="160" width="50" height="50" as="geometry"/>
                </mxCell>
                <mxCell id="6" value="B" style="swimlane;fontStyle=1;fontSize=14;" parent="1" vertex="1">
                    <mxGeometry x="400" y="160" width="50" height="50" as="geometry"/>
                </mxCell>
                <mxCell id="8" value="" style="endArrow=classic;html=1;fontSize=14;strokeWidth=3;" parent="1" edge="1">
                    <mxGeometry width="50" height="50" relative="1" as="geometry">
                        <mxPoint x="170" y="200" as="sourcePoint"/>
                        <mxPoint x="400" y="200" as="targetPoint"/>
                    </mxGeometry>
                </mxCell>
                <mxCell id="9" value="&lt;b&gt;Bi-directional&lt;/b&gt;" style="text;html=1;strokeColor=none;fillColor=none;align=center;verticalAlign=middle;whiteSpace=wrap;rounded=0;fontSize=14;" parent="1" vertex="1">
                    <mxGeometry x="210" y="40" width="140" height="30" as="geometry"/>
                </mxCell>
                <mxCell id="10" value="&lt;b&gt;Uni-directional&lt;/b&gt;" style="text;html=1;strokeColor=none;fillColor=none;align=center;verticalAlign=middle;whiteSpace=wrap;rounded=0;fontSize=14;" parent="1" vertex="1">
                    <mxGeometry x="210" y="160" width="140" height="30" as="geometry"/>
                </mxCell>
                <mxCell id="11" value="&lt;b&gt;&lt;font style=&quot;font-size: 24px;&quot;&gt;ASSOCIATION&lt;/font&gt;&lt;/b&gt;" style="text;html=1;strokeColor=none;fillColor=none;align=center;verticalAlign=middle;whiteSpace=wrap;rounded=0;fontSize=14;rotation=-90;" parent="1" vertex="1">
                    <mxGeometry x="-90" y="110" width="280" height="90" as="geometry"/>
                </mxCell>
                <mxCell id="12" value="A" style="swimlane;fontStyle=1;startSize=23;fontSize=14;" parent="1" vertex="1">
                    <mxGeometry x="120" y="280" width="50" height="50" as="geometry"/>
                </mxCell>
                <mxCell id="13" value="B" style="swimlane;fontStyle=1;fontSize=14;" parent="1" vertex="1">
                    <mxGeometry x="400" y="280" width="50" height="50" as="geometry"/>
                </mxCell>
                <mxCell id="14" value="" style="endArrow=classic;html=1;fontSize=14;strokeWidth=3;" parent="1" edge="1">
                    <mxGeometry width="50" height="50" relative="1" as="geometry">
                        <mxPoint x="170" y="320" as="sourcePoint"/>
                        <mxPoint x="400" y="320" as="targetPoint"/>
                    </mxGeometry>
                </mxCell>
                <mxCell id="15" value="&lt;b&gt;Multiplicity&lt;/b&gt;" style="text;html=1;strokeColor=none;fillColor=none;align=center;verticalAlign=middle;whiteSpace=wrap;rounded=0;fontSize=14;" parent="1" vertex="1">
                    <mxGeometry x="210" y="280" width="140" height="30" as="geometry"/>
                </mxCell>
                <mxCell id="16" value="&lt;font style=&quot;font-size: 14px;&quot;&gt;1&lt;/font&gt;" style="text;html=1;strokeColor=none;fillColor=none;align=center;verticalAlign=middle;whiteSpace=wrap;rounded=0;fontSize=24;" parent="1" vertex="1">
                    <mxGeometry x="160" y="280" width="60" height="30" as="geometry"/>
                </mxCell>
                <mxCell id="17" value="&lt;font style=&quot;font-size: 14px;&quot;&gt;2 - 4&lt;/font&gt;" style="text;html=1;strokeColor=none;fillColor=none;align=center;verticalAlign=middle;whiteSpace=wrap;rounded=0;fontSize=24;" parent="1" vertex="1">
                    <mxGeometry x="350" y="280" width="60" height="30" as="geometry"/>
                </mxCell>
                <mxCell id="18" value="C" style="swimlane;fontStyle=1;fontSize=14;" parent="1" vertex="1">
                    <mxGeometry x="400" y="370" width="50" height="50" as="geometry"/>
                </mxCell>
                <mxCell id="19" value="" style="endArrow=classic;html=1;strokeWidth=3;fontSize=14;entryX=0;entryY=0.75;entryDx=0;entryDy=0;" parent="1" target="18" edge="1">
                    <mxGeometry width="50" height="50" relative="1" as="geometry">
                        <mxPoint x="170" y="320" as="sourcePoint"/>
                        <mxPoint x="360" y="220" as="targetPoint"/>
                    </mxGeometry>
                </mxCell>
                <mxCell id="20" value="&lt;font style=&quot;font-size: 14px;&quot;&gt;1&lt;/font&gt;" style="text;html=1;strokeColor=none;fillColor=none;align=center;verticalAlign=middle;whiteSpace=wrap;rounded=0;fontSize=24;" parent="1" vertex="1">
                    <mxGeometry x="160" y="330" width="60" height="30" as="geometry"/>
                </mxCell>
                <mxCell id="21" value="&lt;font style=&quot;font-size: 25px;&quot;&gt;*&lt;/font&gt;" style="text;html=1;strokeColor=none;fillColor=none;align=center;verticalAlign=middle;whiteSpace=wrap;rounded=0;fontSize=24;" parent="1" vertex="1">
                    <mxGeometry x="350" y="410" width="60" height="30" as="geometry"/>
                </mxCell>
                <mxCell id="22" value="D" style="swimlane;fontStyle=1;fontSize=14;" parent="1" vertex="1">
                    <mxGeometry x="570" y="280" width="50" height="50" as="geometry"/>
                </mxCell>
                <mxCell id="25" value="" style="endArrow=classic;html=1;strokeWidth=3;fontSize=25;exitX=1;exitY=0.75;exitDx=0;exitDy=0;entryX=0;entryY=0.25;entryDx=0;entryDy=0;" parent="1" source="18" target="22" edge="1">
                    <mxGeometry relative="1" as="geometry">
                        <mxPoint x="290" y="250" as="sourcePoint"/>
                        <mxPoint x="390" y="250" as="targetPoint"/>
                    </mxGeometry>
                </mxCell>
                <mxCell id="26" value="&lt;font style=&quot;font-size: 14px;&quot;&gt;&lt;b&gt;Uses&lt;/b&gt;&lt;/font&gt;" style="edgeLabel;resizable=0;html=1;align=center;verticalAlign=middle;fontSize=25;" parent="25" connectable="0" vertex="1">
                    <mxGeometry relative="1" as="geometry"/>
                </mxCell>
                <mxCell id="27" value="&lt;b&gt;A can call B and B can call A&lt;/b&gt;" style="text;html=1;strokeColor=none;fillColor=none;align=center;verticalAlign=middle;whiteSpace=wrap;rounded=0;" vertex="1" parent="1">
                    <mxGeometry x="196" y="88" width="187" height="30" as="geometry"/>
                </mxCell>
                <mxCell id="28" value="&lt;b&gt;A can call B but B cannot call A&lt;/b&gt;" style="text;html=1;strokeColor=none;fillColor=none;align=center;verticalAlign=middle;whiteSpace=wrap;rounded=0;" vertex="1" parent="1">
                    <mxGeometry x="186.5" y="213" width="187" height="30" as="geometry"/>
                </mxCell>
            </root>
        </mxGraphModel>
    </diagram>
</mxfile>